<svg width="144" height="144" viewBox="0 0 144 144" fill="none" xmlns="http://www.w3.org/2000/svg">
<path d="M78 37C79.1046 37 80 37.8954 80 39V53C80 54.1046 79.1046 55 78 55H57C55.8954 55 55 55.8954 55 57V87C55 88.1046 55.8954 89 57 89H86.5C87.6046 89 88.5 88.1046 88.5 87V66C88.5 64.8954 89.3954 64 90.5 64H105C106.105 64 107 64.8954 107 66V105C107 106.105 106.105 107 105 107H39C37.8954 107 37 106.105 37 105V39C37 37.8954 37.8954 37 39 37H78Z" fill="url(#paint0_linear_43_40)"/>
<path d="M91 37C89.8954 37 89 37.8954 89 39V53C89 54.1046 89.8954 55 91 55H105C106.105 55 107 54.1046 107 53V39C107 37.8954 106.105 37 105 37H91Z" fill="url(#paint1_linear_43_40)"/>
<defs>
<linearGradient id="paint0_linear_43_40" x1="107" y1="37" x2="37" y2="107" gradientUnits="userSpaceOnUse">
<stop stop-color="white"/>
<stop offset="1" stop-color="#3C4C55"/>
</linearGradient>
<linearGradient id="paint1_linear_43_40" x1="107" y1="37" x2="37" y2="107" gradientUnits="userSpaceOnUse">
<stop stop-color="white"/>
<stop offset="1" stop-color="#3C4C55"/>
</linearGradient>
</defs>
</svg>
