<svg width="201" height="24" viewBox="0 0 201 24" fill="none" xmlns="http://www.w3.org/2000/svg">
<path d="M0.344 24V0.959999H4.536V24H0.344ZM17.417 24V0.959999H22.057L36.201 17.792V0.959999H40.457V24H35.817L21.641 7.136V24H17.417ZM62.0793 24V5.216H52.6713V0.959999H75.7113V5.216H66.3353V24H62.0793ZM87.4378 24V0.959999H91.6298V24H87.4378ZM108.959 24C108.148 24 107.401 23.7973 106.719 23.392C106.057 22.9867 105.524 22.4533 105.119 21.792C104.713 21.1093 104.511 20.3627 104.511 19.552V5.408C104.511 4.59733 104.713 3.86133 105.119 3.2C105.524 2.51733 106.057 1.97333 106.719 1.568C107.401 1.16267 108.148 0.959999 108.959 0.959999H127.487V5.216H109.855C109.513 5.216 109.236 5.312 109.023 5.504C108.831 5.696 108.735 5.97333 108.735 6.336V18.624C108.735 18.9653 108.831 19.2427 109.023 19.456C109.236 19.648 109.513 19.744 109.855 19.744H127.487V24H108.959ZM144.989 24C144.178 24 143.431 23.7973 142.749 23.392C142.087 22.9867 141.554 22.4533 141.149 21.792C140.743 21.1093 140.541 20.3627 140.541 19.552V5.408C140.541 4.59733 140.743 3.86133 141.149 3.2C141.554 2.51733 142.087 1.97333 142.749 1.568C143.431 1.16267 144.178 0.959999 144.989 0.959999H159.133C159.943 0.959999 160.679 1.16267 161.341 1.568C162.023 1.97333 162.567 2.51733 162.973 3.2C163.378 3.86133 163.581 4.59733 163.581 5.408V19.552C163.581 20.3627 163.378 21.1093 162.973 21.792C162.567 22.4533 162.023 22.9867 161.341 23.392C160.679 23.7973 159.943 24 159.133 24H144.989ZM145.149 19.744H158.909C159.015 19.744 159.111 19.712 159.197 19.648C159.282 19.5627 159.325 19.4667 159.325 19.36V5.6C159.325 5.49333 159.282 5.408 159.197 5.344C159.111 5.25867 159.015 5.216 158.909 5.216H145.149C145.042 5.216 144.946 5.25867 144.861 5.344C144.797 5.408 144.765 5.49333 144.765 5.6V19.36C144.765 19.4667 144.797 19.5627 144.861 19.648C144.946 19.712 145.042 19.744 145.149 19.744ZM185.846 24V15.36L175.222 0.959999H180.214L187.99 10.72L195.67 0.959999H200.758L190.102 15.392V24H185.846Z" fill="url(#paint0_linear_58_175)"/>
<defs>
<linearGradient id="paint0_linear_58_175" x1="-1" y1="12" x2="201" y2="12" gradientUnits="userSpaceOnUse">
<stop/>
<stop offset="1" stop-color="#3C4C55"/>
</linearGradient>
</defs>
</svg>
